<svg width="93" height="23" viewBox="0 0 93 23" fill="none" xmlns="http://www.w3.org/2000/svg">
<path d="M53.6608 12.4813C54.7376 12.2702 54.7376 10.7298 53.6608 10.5187L13.4529 2.63706C12.2364 2.3986 11.7588 4.14894 12.9278 4.5614L29.9201 10.5569C30.8098 10.8708 30.8098 12.129 29.9201 12.443L12.9275 18.4387C11.7585 18.8511 12.2361 20.6015 13.4526 20.363L53.6608 12.4813Z" fill="white"/>
<path d="M87.6608 12.4813C88.7376 12.2702 88.7376 10.7298 87.6608 10.5187L47.4529 2.63706C46.2364 2.3986 45.7588 4.14894 46.9278 4.5614L63.9201 10.5569C64.8098 10.8708 64.8098 12.129 63.9201 12.443L46.9275 18.4387C45.7585 18.8511 46.2361 20.6015 47.4526 20.363L87.6608 12.4813Z" fill="white"/>
</svg>
