<svg 
  xmlns="http://www.w3.org/2000/svg" 
  viewBox="0 0 96 96"
>
  <path 
    fill="white"
    d="M51.35,78.26h-6.7a1,1,0,0,1-1-.8l-.89-4.53a24.27,24.27,0,0,1-8.2-3.4l-3.84,2.58A1,1,0,0,1,29.48,72l-4.75-4.74A1,1,0,0,1,24.61,66l2.58-3.83a24.32,24.32,0,0,1-3.4-8.21l-4.54-.88a1,1,0,0,1-.81-1V45.36a1,1,0,0,1,.81-1l4.55-.89a24.32,24.32,0,0,1,3.4-8.21l-2.59-3.83a1,1,0,0,1,.12-1.27l4.75-4.74a1,1,0,0,1,1.26-.12l3.84,2.58a24.27,24.27,0,0,1,8.2-3.4L43.67,20a1,1,0,0,1,1-.81h6.7a1,1,0,0,1,1,.8l.9,4.56a24,24,0,0,1,8.19,3.38l3.84-2.58a1,1,0,0,1,1.26.12l4.75,4.74a1,1,0,0,1,.12,1.27L68.8,35.28a24.32,24.32,0,0,1,3.4,8.21l4.55.89a1,1,0,0,1,.81,1v6.71a1,1,0,0,1-.81,1l-4.54.88a24.32,24.32,0,0,1-3.4,8.21L71.39,66a1,1,0,0,1-.12,1.27L66.52,72a1,1,0,0,1-1.26.13l-3.84-2.58a24.27,24.27,0,0,1-8.2,3.4l-.89,4.53A1,1,0,0,1,51.35,78.26Zm-5.88-2h5.06l.85-4.38a1,1,0,0,1,.8-.79,22.37,22.37,0,0,0,8.68-3.59,1,1,0,0,1,1.13,0l3.7,2.5,3.58-3.58L66.78,62.7a1,1,0,0,1,0-1.12,22.24,22.24,0,0,0,3.6-8.68,1,1,0,0,1,.79-.8l4.39-.86V46.19l-4.4-.87a1,1,0,0,1-.79-.8,22.3,22.3,0,0,0-3.6-8.68,1,1,0,0,1,0-1.12L69.27,31l-3.58-3.58L62,29.94a1,1,0,0,1-1.13,0,22.15,22.15,0,0,0-8.67-3.58,1,1,0,0,1-.8-.79l-.86-4.4H45.47l-.85,4.39a1,1,0,0,1-.8.79,22.37,22.37,0,0,0-8.68,3.59,1,1,0,0,1-1.13,0l-3.7-2.51L26.73,31l2.5,3.71a1,1,0,0,1,0,1.12,22.3,22.3,0,0,0-3.6,8.68,1,1,0,0,1-.79.8l-4.4.87v5.05l4.39.86a1,1,0,0,1,.79.8,22.37,22.37,0,0,0,3.6,8.68,1,1,0,0,1,0,1.12l-2.49,3.71L30.31,70l3.7-2.5a1,1,0,0,1,1.13,0,22.37,22.37,0,0,0,8.68,3.59,1,1,0,0,1,.8.79Z"
  />
  <path 
    fill="white"
    d="M48,64.12A15.41,15.41,0,1,1,63.41,48.71,15.42,15.42,0,0,1,48,64.12ZM48,35.3A13.41,13.41,0,1,0,61.41,48.71,13.43,13.43,0,0,0,48,35.3Z"
  />
  <path 
    fill="white"
    d="M48,89.1a41.76,41.76,0,0,1-4.34-.22,1,1,0,1,1,.21-2A40.5,40.5,0,0,0,48,87.1,39.21,39.21,0,0,0,87.16,47.94a1,1,0,0,1,2,0A41.2,41.2,0,0,1,48,89.1Z"
  />
  <path 
    fill="white"
    d="M7.84,48.94a1,1,0,0,1-1-1A41.2,41.2,0,0,1,48,6.78,42.26,42.26,0,0,1,52.5,7a1,1,0,1,1-.22,2A40.62,40.62,0,0,0,48,8.78,39.21,39.21,0,0,0,8.84,47.94,1,1,0,0,1,7.84,48.94Z"
  />
  <path 
    fill="white"
    d="M47.61,13.79a1,1,0,0,1-.7-.29,1,1,0,0,1,0-1.41L51,8,46.67,3.71a1,1,0,0,1,0-1.42,1,1,0,0,1,1.41,0l5,5a1,1,0,0,1,0,1.41L48.32,13.5A1,1,0,0,1,47.61,13.79Z"
  />
  <path 
    fill="white"
    d="M48.78,94a1,1,0,0,1-.7-.29l-5-5a1,1,0,0,1,0-1.41l4.78-4.78a1,1,0,0,1,1.41,1.41L45.18,88l4.31,4.31a1,1,0,0,1,0,1.42A1,1,0,0,1,48.78,94Z"
  />
</svg>