<svg width="467" height="85" viewBox="0 0 467 85" fill="none" xmlns="http://www.w3.org/2000/svg">
<path d="M0 82.0631V16.0631V15.5625H14.5L15 67.5625C18.2 67.5625 32.5 68.0625 35 66.5625C41.8 64.1625 45.5 59.0625 46 52.5625C46.5343 48.0214 46.4977 40.9114 46.3477 35.2736C46.3147 34.0345 46.2763 32.8666 46.2372 31.8126C46.1081 28.3286 45.64 24.7301 43.5828 21.9153C40.1869 17.2687 35.4602 15.9545 33.5 15.5625C31.7459 15.2117 20.1667 14.8958 14.5 15.0625L2 0.563065H2.5C10.5 0.396398 28.4 0.363064 36 1.56306C43.6 2.76306 51.5 8.06194 54 11.0625C59 16.0619 62 26.0625 62 29.5631C63.2 47.1631 60.5 58.5631 59.5 61.5631C58.5 65.5631 52.9994 72.0636 51 74.0631C49.0006 76.0625 45.5 78.5625 38.5 81.0631C32 84.0625 12.1667 82.2297 0 82.0631Z" fill="white"/>
<path d="M70 15.0625H84.5L72.5 1.0625H118V15.0625H84.5V34.5625H114.5L105.5 48.0625H84.5V68.5625H120L110.5 82.0625H70V15.0625Z" fill="white"/>
<path d="M189.5 15.0625H204L192 1.0625H237.5V15.0625H204V34.5625H234L225 48.0625H204V68.5625H239.5L230 82.0625H189.5V15.0625Z" fill="white"/>
<path d="M416.5 15.0625H431L419 1.0625H464.5V15.0625H431V34.5625H461L452 48.0625H431V68.5625H466.5L457 82.0625H416.5V15.0625Z" fill="white"/>
<path d="M273.5 84.0625L241.5 1.0625H258L282.5 65.0625L273.5 84.0625Z" fill="white"/>
<path d="M286.5 57.0625L277.5 40.5625L295.5 0.0625L320.5 65.5625L312.5 84.0625L294.5 39.0625L286.5 57.0625Z" fill="white"/>
<path d="M325 57.0625L316.5 41.5625L333.5 0.0625H349L325 57.0625Z" fill="white"/>
<path d="M142.999 17.0621V1.06209C139.499 1.06209 126 8.06209 125.5 19.5621C125 31.0621 127.5 36.5621 133.5 40.5621C139.5 44.5621 155.5 49.5621 163 52.0621C169 54.0621 167.5 61.8954 166 65.5621L165.5 82.0621C175.5 80.5621 181.806 69.0289 182.5 65.5621C183 63.0621 184 59.5621 182.5 52.5621C181.797 49.2826 177.5 43.5621 174 41.5621C162.796 35.1607 151.999 35.0621 144.499 30.0621C138.499 26.0621 140.999 19.7288 142.999 17.0621Z" fill="white"/>
<path d="M125.5 66.0621C130.299 80.0621 144.833 82.8954 151.5 82.5621L162 68.0621C158.833 68.5621 151.6 69.3621 148 68.5621C141.6 66.9621 139.667 60.8954 139.5 58.0621H125C124.667 58.8954 124.3 61.6621 125.5 66.0621Z" fill="white"/>
<path d="M155.5 0.0620928L145 14.5621C147.333 14.2289 153.5 13.7624 159.5 14.5621C165.5 15.3618 167 21.5622 167 24.5625H182C182 22.8958 181.7 18.6624 180.5 15.0621C174.9 1.86209 161.5 -0.437907 155.5 0.0620928Z" fill="white"/>
<path d="M365.5 15.5625H351.5V82.5625H365.5V15.5625Z" fill="white"/>
<path d="M384.5 0.0625H353.5H352.5L366.5 15.5625H384.5C389 16.0625 391.196 18.9548 392.5 21.5625C394 24.5625 393.364 29.6073 393 31.0625C391.5 37.0625 387 40.0625 383 40.5625H367.5L395.5 82.5625H414C406.833 71.8958 392.4 50.5625 392 50.5625C399.5 48.0625 403.5 43.0625 405 41.0625C406.5 39.0625 409.5 30.0625 408.5 22.0625C407.7 15.6625 402.833 9.39583 400.5 7.0625C398 5.0625 393.5 0.5625 384.5 0.0625Z" fill="white"/>
</svg>
