<svg width="29" height="29" viewBox="0 0 29 29" fill="none" xmlns="http://www.w3.org/2000/svg">
<path fill-rule="evenodd" clip-rule="evenodd" d="M17.789 1.16178C18.36 1.16178 18.8235 1.62534 18.8235 2.19649C18.8235 2.76766 18.36 3.23122 17.789 3.23122H7.76414C4.30483 3.23122 2.06896 5.60968 2.06896 9.29327V20.4434C2.06896 24.1752 4.25104 26.493 7.76414 26.493H19.6317C23.091 26.493 25.3269 24.1187 25.3269 20.4434V10.7322C25.3269 10.1611 25.7903 9.69753 26.3613 9.69753C26.9324 9.69753 27.3958 10.1611 27.3958 10.7322V20.4434C27.3958 25.2996 24.2758 28.5625 19.6317 28.5625H7.76414C3.12 28.5625 0 25.2996 0 20.4434V9.29327C0 4.43011 3.12 1.16178 7.76414 1.16178H17.789ZM20.7068 10.5843C21.1591 10.9348 21.2419 11.5845 20.8916 12.0357L16.8502 17.2507C16.6819 17.4687 16.4336 17.6107 16.1605 17.6438C15.8847 17.6811 15.6116 17.6011 15.3937 17.4314L11.5068 14.3769L8.01573 18.9145C7.81158 19.1794 7.50538 19.3187 7.19503 19.3187C6.97435 19.3187 6.75227 19.2484 6.56469 19.1049C6.11228 18.7559 6.02676 18.106 6.37572 17.6535L10.504 12.2867C10.6723 12.0674 10.9219 11.9253 11.195 11.8908C11.4737 11.8549 11.7468 11.9322 11.9633 12.1047L15.853 15.1605L19.2557 10.7691C19.6061 10.3153 20.2544 10.2311 20.7068 10.5843ZM24.7826 0C26.8157 0 28.4682 1.65279 28.4682 3.68635C28.4682 5.71991 26.8157 7.37408 24.7826 7.37408C22.7509 7.37408 21.0971 5.71991 21.0971 3.68635C21.0971 1.65279 22.7509 0 24.7826 0ZM24.7826 2.06943C23.8916 2.06943 23.166 2.79373 23.166 3.68635C23.166 4.57758 23.8916 5.30465 24.7826 5.30465C25.6736 5.30465 26.3992 4.57758 26.3992 3.68635C26.3992 2.79373 25.6736 2.06943 24.7826 2.06943Z" fill="white"/>
</svg>
