<svg width="252" height="254" viewBox="0 0 252 254" fill="none" xmlns="http://www.w3.org/2000/svg">
<g clip-path="url(#clip0_700_2541)">
<path fill-rule="evenodd" clip-rule="evenodd" d="M22.808 198.668C-16.2284 140.81 -1.74432 61.8142 55.3088 22.2268C112.362 -17.3606 190.258 -2.67215 229.295 55.1864C268.331 113.045 253.847 192.041 196.794 231.628C139.74 271.216 61.8444 256.527 22.808 198.668ZM125.256 124.33C136.738 141.347 143.626 164.097 148.925 188.816L218.696 189.891C202.976 155.319 177.54 127.017 145.569 103.014C155.638 92.6243 168.355 87.6087 181.603 83.6679C163.233 80.0853 144.863 83.6679 126.493 92.2661C104.943 83.1305 86.9266 81.3392 71.3827 84.2053C89.7528 91.0121 99.9975 96.7443 106.356 101.939C73.3256 124.33 49.6565 153.886 34.2893 189.891L101.94 190.429C106.356 163.738 115.188 141.885 125.61 124.151L125.256 124.33Z" fill="white"/>
</g>
<defs>
<clipPath id="clip0_700_2541">
<rect width="252" height="254" fill="white"/>
</clipPath>
</defs>
</svg>
