<svg width="1232" height="339" viewBox="0 0 1232 339" fill="none" xmlns="http://www.w3.org/2000/svg">
<g clip-path="url(#clip0_705_2544)">
<path d="M35.2384 297.146V331.655H28.9189V316.865H11.3215V331.655H5.00195V297.146H11.3215V311.393H28.9189V297.146H35.2384Z" fill="white"/>
<path d="M67.3393 323.668H50.3252L46.971 331.655H40.457L55.7697 297.146H61.992L77.3532 331.655H70.7421L67.3393 323.668ZM65.249 318.641L58.8322 303.555L52.4641 318.641H65.249Z" fill="white"/>
<path d="M116.545 326.232V339H110.711V331.655H84.6066V339H78.7246L78.7732 326.232H80.2315C82.3705 326.133 83.8612 324.54 84.7038 321.451C85.5788 318.329 86.1135 313.874 86.308 308.09L86.6969 297.146H111.635V326.232H116.545ZM91.8497 308.682C91.6877 313.151 91.3312 316.882 90.7803 319.872C90.2293 322.83 89.3543 324.95 88.1552 326.232H105.413V302.569H92.0928L91.8497 308.682Z" fill="white"/>
<path d="M148.015 326.281V331.655H122.494V297.146H147.335V302.52H128.814V311.492H145.244V316.767H128.814V326.281H148.015Z" fill="white"/>
<path d="M184.432 317.112H178.598V331.655H172.425V317.112H166.591L157.987 331.655H150.695L161.39 313.661L151.424 297.146H158.133L166.445 311.59H172.425V297.146H178.598V311.59H184.48L192.842 297.146H199.55L189.633 313.71L200.279 331.655H192.987L184.432 317.112Z" fill="white"/>
<path d="M234.906 297.146V331.655H228.587V316.865H210.989V331.655H204.67V297.146H210.989V311.393H228.587V297.146H234.906Z" fill="white"/>
<path d="M267.007 323.668H249.993L246.639 331.655H240.125L255.438 297.146H261.66L277.021 331.655H270.41L267.007 323.668ZM264.917 318.641L258.5 303.555L252.132 318.641H264.917Z" fill="white"/>
<path d="M306.538 297.146V331.655H300.315V322.042H291.225L284.905 331.655H278.246L285.537 321.007C283.172 320.12 281.341 318.722 280.044 316.816C278.78 314.877 278.148 312.543 278.148 309.816C278.148 307.186 278.732 304.919 279.898 303.013C281.065 301.106 282.718 299.66 284.857 298.674C286.996 297.655 289.507 297.146 292.392 297.146H306.538ZM292.586 302.569C289.993 302.569 288 303.177 286.607 304.393C285.246 305.609 284.565 307.384 284.565 309.717C284.565 311.985 285.23 313.743 286.558 314.992C287.887 316.208 289.815 316.816 292.343 316.816H300.315V302.569H292.586Z" fill="white"/>
<path d="M354.264 302.569H342.986V331.655H336.715V302.569H325.486V297.146H354.264V302.569Z" fill="white"/>
<path d="M385.236 326.281V331.655H359.715V297.146H384.556V302.52H366.035V311.492H382.465V316.767H366.035V326.281H385.236Z" fill="white"/>
<path d="M395.838 297.146L403.859 308.682L411.88 297.146H419.269L407.845 313.71L420.192 331.655H412.706L403.859 319.085L395.06 331.655H387.768L400.067 313.957L388.546 297.146H395.838Z" fill="white"/>
<path d="M454.656 297.146V331.655H448.337V316.865H430.739V331.655H424.42V297.146H430.739V311.393H448.337V297.146H454.656Z" fill="white"/>
<path d="M464.248 297.146H470.471V321.647L488.748 297.146H494.631V331.655H488.408V307.203L470.13 331.655H464.248V297.146Z" fill="white"/>
<path d="M516.714 317.112H510.395V331.655H504.172V297.146H510.395V311.59H516.909L526.679 297.146H533.388L521.77 313.858L533.825 331.655H526.679L516.714 317.112Z" fill="white"/>
<path d="M560.101 323.668H543.087L539.733 331.655H533.219L548.532 297.146H554.754L570.115 331.655H563.504L560.101 323.668ZM558.011 318.641L551.594 303.555L545.226 318.641H558.011Z" fill="white"/>
<path d="M622.505 326.232V339H616.672V331.655H590.568V339H584.686L584.734 326.232H586.192C588.331 326.133 589.822 324.54 590.665 321.451C591.54 318.329 592.074 313.874 592.269 308.09L592.658 297.146H617.596V326.232H622.505ZM597.811 308.682C597.649 313.151 597.292 316.882 596.741 319.872C596.19 322.83 595.315 324.95 594.116 326.232H611.373V302.569H598.054L597.811 308.682Z" fill="white"/>
<path d="M657.524 297.146V331.655H651.302V302.569H637.885L637.594 311.197C637.432 316.028 637.043 319.955 636.427 322.978C635.811 325.969 634.823 328.253 633.462 329.831C632.101 331.375 630.221 332.148 627.823 332.148C626.98 332.148 625.83 331.983 624.371 331.655L624.809 326.085C625.23 326.216 625.716 326.281 626.267 326.281C628.244 326.281 629.638 325.098 630.448 322.732C631.29 320.333 631.809 316.569 632.003 311.442L632.489 297.146H657.524Z" fill="white"/>
<path d="M693.104 297.146V331.655H686.882V322.042H677.792L671.472 331.655H664.812L672.104 321.007C669.738 320.12 667.907 318.722 666.611 316.816C665.347 314.877 664.715 312.543 664.715 309.816C664.715 307.186 665.299 304.919 666.465 303.013C667.632 301.106 669.285 299.66 671.424 298.674C673.563 297.655 676.074 297.146 678.958 297.146H693.104ZM679.153 302.569C676.56 302.569 674.567 303.177 673.174 304.393C671.812 305.609 671.132 307.384 671.132 309.717C671.132 311.985 671.796 313.743 673.125 314.992C674.454 316.208 676.382 316.816 678.91 316.816H686.882V302.569H679.153Z" fill="white"/>
<path d="M730.137 297.146C733.086 297.146 735.646 297.639 737.818 298.625C740.021 299.611 741.707 301.024 742.873 302.865C744.04 304.705 744.623 306.891 744.623 309.421C744.623 311.919 744.04 314.105 742.873 315.978C741.707 317.818 740.021 319.232 737.818 320.217C735.646 321.203 733.086 321.697 730.137 321.697H722.457V331.655H716.137V297.146H730.137ZM729.845 316.274C732.6 316.274 734.69 315.682 736.116 314.499C737.542 313.316 738.255 311.623 738.255 309.421C738.255 307.219 737.542 305.527 736.116 304.344C734.69 303.16 732.6 302.569 729.845 302.569H722.457V316.274H729.845Z" fill="white"/>
<path d="M771.447 323.668H754.433L751.078 331.655H744.564L759.877 297.146H766.099L781.461 331.655H774.849L771.447 323.668ZM769.356 318.641L762.94 303.555L756.572 318.641H769.356Z" fill="white"/>
<path d="M786.729 297.146H813.222V302.421H792.951V310.9H803.013C807.097 310.9 810.192 311.771 812.298 313.513C814.437 315.222 815.508 317.703 815.508 320.957C815.508 324.375 814.34 327.022 812.006 328.895C809.673 330.735 806.352 331.655 802.042 331.655H786.729V297.146ZM801.701 326.725C804.131 326.725 805.979 326.249 807.243 325.296C808.506 324.343 809.138 322.962 809.138 321.154C809.138 317.605 806.659 315.83 801.701 315.83H792.951V326.725H801.701Z" fill="white"/>
<path d="M838.177 332.148C834.709 332.148 831.582 331.392 828.795 329.88C826.007 328.335 823.82 326.215 822.232 323.52C820.644 320.793 819.85 317.753 819.85 314.4C819.85 311.048 820.644 308.024 822.232 305.33C823.82 302.602 826.007 300.482 828.795 298.97C831.582 297.425 834.709 296.653 838.177 296.653C841.644 296.653 844.771 297.425 847.559 298.97C850.346 300.482 852.533 302.585 854.121 305.28C855.709 307.975 856.503 311.015 856.503 314.4C856.503 317.785 855.709 320.826 854.121 323.52C852.533 326.215 850.346 328.335 847.559 329.88C844.771 331.392 841.644 332.148 838.177 332.148ZM838.177 326.528C840.445 326.528 842.487 326.018 844.302 324.999C846.116 323.948 847.542 322.502 848.579 320.661C849.616 318.788 850.135 316.701 850.135 314.4C850.135 312.1 849.616 310.029 848.579 308.189C847.542 306.315 846.116 304.869 844.302 303.851C842.487 302.799 840.445 302.273 838.177 302.273C835.908 302.273 833.866 302.799 832.051 303.851C830.237 304.869 828.811 306.315 827.774 308.189C826.737 310.029 826.218 312.1 826.218 314.4C826.218 316.701 826.737 318.788 827.774 320.661C828.811 322.502 830.237 323.948 832.051 324.999C833.866 326.018 835.908 326.528 838.177 326.528Z" fill="white"/>
<path d="M887.71 302.569H876.432V331.655H870.161V302.569H858.932V297.146H887.71V302.569Z" fill="white"/>
<path d="M908.862 308.83C912.945 308.83 916.072 309.767 918.244 311.641C920.447 313.481 921.549 316.224 921.549 319.872C921.549 323.685 920.35 326.61 917.952 328.647C915.554 330.652 912.183 331.655 907.841 331.655H893.209V297.146H899.431V308.83H908.862ZM907.549 326.725C910.012 326.725 911.908 326.15 913.237 324.999C914.565 323.849 915.23 322.173 915.23 319.971C915.23 315.797 912.67 313.71 907.549 313.71H899.431V326.725H907.549ZM926.459 297.146H932.681V331.655H926.459V297.146Z" fill="white"/>
<path d="M955.73 297.146H961.953V321.647L980.23 297.146H986.112V331.655H979.891V307.203L961.612 331.655H955.73V297.146Z" fill="white"/>
<path d="M1024.84 332.148C1021.37 332.148 1018.24 331.392 1015.46 329.88C1012.67 328.335 1010.48 326.215 1008.89 323.52C1007.31 320.793 1006.51 317.753 1006.51 314.4C1006.51 311.048 1007.31 308.024 1008.89 305.33C1010.48 302.602 1012.67 300.482 1015.46 298.97C1018.24 297.425 1021.37 296.653 1024.84 296.653C1028.31 296.653 1031.43 297.425 1034.22 298.97C1037.01 300.482 1039.19 302.585 1040.78 305.28C1042.37 307.975 1043.16 311.015 1043.16 314.4C1043.16 317.785 1042.37 320.826 1040.78 323.52C1039.19 326.215 1037.01 328.335 1034.22 329.88C1031.43 331.392 1028.31 332.148 1024.84 332.148ZM1024.84 326.528C1027.11 326.528 1029.15 326.018 1030.96 324.999C1032.78 323.948 1034.2 322.502 1035.24 320.661C1036.28 318.788 1036.8 316.701 1036.8 314.4C1036.8 312.1 1036.28 310.029 1035.24 308.189C1034.2 306.315 1032.78 304.869 1030.96 303.851C1029.15 302.799 1027.11 302.273 1024.84 302.273C1022.57 302.273 1020.53 302.799 1018.71 303.851C1016.9 304.869 1015.47 306.315 1014.43 308.189C1013.4 310.029 1012.88 312.1 1012.88 314.4C1012.88 316.701 1013.4 318.788 1014.43 320.661C1015.47 322.502 1016.9 323.948 1018.71 324.999C1020.53 326.018 1022.57 326.528 1024.84 326.528Z" fill="white"/>
<path d="M1074.37 302.569H1063.09V331.655H1056.82V302.569H1045.59V297.146H1074.37V302.569Z" fill="white"/>
<path d="M1111.75 326.232V339H1105.92V331.655H1079.82V339H1073.93L1073.98 326.232H1075.44C1077.58 326.133 1079.07 324.54 1079.91 321.451C1080.79 318.329 1081.32 313.874 1081.52 308.09L1081.91 297.146H1106.84V326.232H1111.75ZM1087.06 308.682C1086.9 313.151 1086.54 316.882 1085.99 319.872C1085.44 322.83 1084.56 324.95 1083.36 326.232H1100.62V302.569H1087.3L1087.06 308.682Z" fill="white"/>
<path d="M1133.41 308.83C1137.49 308.83 1140.62 309.767 1142.79 311.641C1144.99 313.481 1146.09 316.224 1146.09 319.872C1146.09 323.685 1144.89 326.61 1142.5 328.647C1140.1 330.652 1136.73 331.655 1132.38 331.655H1117.75V297.146H1123.97V308.83H1133.41ZM1132.09 326.725C1134.56 326.725 1136.45 326.15 1137.78 324.999C1139.11 323.849 1139.77 322.173 1139.77 319.971C1139.77 315.797 1137.21 313.71 1132.09 313.71H1123.97V326.725H1132.09ZM1151 297.146H1157.23V331.655H1151V297.146Z" fill="white"/>
<path d="M1170.73 297.146L1178.75 308.682L1186.77 297.146H1194.16L1182.73 313.71L1195.08 331.655H1187.6L1178.75 319.085L1169.95 331.655H1162.66L1174.96 313.957L1163.44 297.146H1170.73Z" fill="white"/>
<path d="M1221.29 323.668H1204.28L1200.93 331.655H1194.41L1209.73 297.146H1215.95L1231.31 331.655H1224.7L1221.29 323.668ZM1219.2 318.641L1212.79 303.555L1206.42 318.641H1219.2Z" fill="white"/>
<path fill-rule="evenodd" clip-rule="evenodd" d="M536.81 198.668C497.774 140.81 512.258 61.8142 569.311 22.2268C626.364 -17.3606 704.26 -2.67215 743.297 55.1864C782.333 113.045 767.849 192.041 710.796 231.628C653.742 271.216 575.846 256.527 536.81 198.668ZM639.258 124.33C650.74 141.347 657.628 164.097 662.928 188.816L732.698 189.891C716.978 155.319 691.542 127.017 659.571 103.014C669.64 92.6243 682.357 87.6087 695.605 83.6679C677.235 80.0853 658.865 83.6679 640.495 92.2661C618.945 83.1305 600.929 81.3392 585.385 84.2053C603.755 91.0121 614 96.7442 620.358 101.939C587.328 124.33 563.659 153.886 548.291 189.891L615.943 190.429C620.358 163.738 629.19 141.885 639.612 124.151L639.258 124.33Z" fill="white"/>
<path fill-rule="evenodd" clip-rule="evenodd" d="M465.62 188.997L450.253 169.651H371.65L356.46 188.997H326.785L396.909 104.628H425.524L495.825 189.176H465.444L465.62 188.997ZM440.715 157.112L411.217 120.212L382.072 157.112H440.715Z" fill="white"/>
<path fill-rule="evenodd" clip-rule="evenodd" d="M75.4231 189.54L0.529884 188.465L0 104.454H72.597C106.864 105.887 123.468 112.694 137.422 120.397C153.319 131.861 157.029 145.654 149.257 161.596C132.83 185.062 103.861 186.853 75.4231 189.54ZM122.055 157.297C127.001 146.37 124.528 137.056 114.636 129.174C105.804 123.8 95.2063 119.143 73.6568 118.247H27.7317L28.0849 175.747L75.4231 176.464C93.4399 174.673 111.633 173.419 122.055 157.297Z" fill="white"/>
<path fill-rule="evenodd" clip-rule="evenodd" d="M249.412 164.282L214.439 163.744V189.181L185.117 189.002V104.99H246.939C275.201 103.916 290.568 109.289 302.226 114.663C315.65 122.545 319.183 134.905 312.648 146.011C305.229 154.609 294.984 158.908 283.15 161.237C280.5 161.774 320.95 188.823 318.123 189.181C316.18 189.36 297.81 189.718 287.036 189.002C276.614 181.657 263.013 169.297 256.124 164.819C254.005 164.461 251.709 164.461 249.412 164.461V164.282ZM285.269 140.816C288.625 133.114 286.859 127.919 279.97 123.261C268.842 115.38 241.64 117.529 214.262 117.529V151.743L257.008 151.564C270.962 149.952 276.261 149.593 285.269 140.637V140.816Z" fill="white"/>
<path fill-rule="evenodd" clip-rule="evenodd" d="M846.438 116.995L846.085 188.468H874.17V117.533H926.631V104.277L794.154 103.74V116.816H846.615L846.438 116.995Z" fill="white"/>
<path fill-rule="evenodd" clip-rule="evenodd" d="M948.896 104.633L948.543 188.645H1065.65V175.747L977.511 176.106L977.158 152.461L1053.11 152.102V139.742L977.335 139.384V117.351L1062.65 116.814L1062.12 104.454H948.72L948.896 104.633Z" fill="white"/>
<path fill-rule="evenodd" clip-rule="evenodd" d="M1163.15 163.556L1128.17 163.019V188.455L1098.85 188.276V104.264H1160.67C1188.94 103.19 1204.3 108.563 1215.96 113.937C1229.39 121.819 1232.92 134.179 1226.38 145.285C1218.96 153.883 1208.72 158.182 1196.88 160.511C1194.23 161.048 1234.68 188.097 1231.86 188.455C1229.92 188.634 1211.55 188.992 1200.77 188.276C1190.35 180.931 1176.75 168.572 1169.86 164.093C1167.74 163.735 1165.44 163.735 1163.15 163.735V163.556ZM1199 140.09C1202.36 132.388 1200.59 127.193 1193.71 122.536C1182.58 114.654 1155.38 116.803 1128 116.803V151.017L1170.74 150.838C1184.7 149.226 1190 148.867 1199 139.911V140.09Z" fill="white"/>
</g>
<defs>
<clipPath id="clip0_705_2544">
<rect width="1232" height="339" fill="white"/>
</clipPath>
</defs>
</svg>
