<svg width="184" height="211" viewBox="0 0 184 211" fill="none" xmlns="http://www.w3.org/2000/svg">
<path d="M92.1989 82.8864L111.21 94.0692V116.435L92.1989 127.618L72.0699 116.435V94.0692L92.1989 82.8864Z" fill="white"/>
<path d="M127.984 66.1122L178.306 51.5745L100.027 3.48851L127.984 66.1122Z" fill="white"/>
<path d="M182.78 60.5208V151.101L152.586 129.854L182.78 60.5208Z" fill="white"/>
<path d="M88.8441 1.25195L62.0054 62.7573L2.73656 53.8111L88.8441 1.25195Z" fill="white"/>
<path d="M0.5 149.983L30.6935 80.6498L0.5 59.4025V149.983Z" fill="white"/>
<path d="M84.371 207.015L55.2957 144.392L6.0914 157.811L84.371 207.015Z" fill="white"/>
<path d="M94.4355 209.252L121.274 147.747L180.543 156.693L94.4355 209.252Z" fill="white"/>
<path d="M117.919 60.5208L93.3172 4.60679L53.0591 99.6606L92.1989 76.1767L139.167 105.252L123.511 142.155L140.285 144.392L178.306 57.1659L115.683 73.9401L96.672 60.5208H117.919Z" fill="white"/>
<path d="M92.1989 82.8864L111.21 94.0692V116.435L92.1989 127.618L72.0699 116.435V94.0692L92.1989 82.8864Z" stroke="black"/>
<path d="M127.984 66.1122L178.306 51.5745L100.027 3.48851L127.984 66.1122Z" stroke="black"/>
<path d="M182.78 60.5208V151.101L152.586 129.854L182.78 60.5208Z" stroke="black"/>
<path d="M88.8441 1.25195L62.0054 62.7573L2.73656 53.8111L88.8441 1.25195Z" stroke="black"/>
<path d="M0.5 149.983L30.6935 80.6498L0.5 59.4025V149.983Z" stroke="black"/>
<path d="M84.371 207.015L55.2957 144.392L6.0914 157.811L84.371 207.015Z" stroke="black"/>
<path d="M94.4355 209.252L121.274 147.747L180.543 156.693L94.4355 209.252Z" stroke="black"/>
<path d="M117.919 60.5208L93.3172 4.60679L53.0591 99.6606L92.1989 76.1767L139.167 105.252L123.511 142.155L140.285 144.392L178.306 57.1659L115.683 73.9401L96.672 60.5208H117.919Z" stroke="black"/>
<path d="M132.457 107.489L91.0803 208.134L59.7685 138.801L3.85449 154.457L44.1126 64.9941L60.8867 67.2307L45.2308 105.252L91.0803 134.327L132.457 107.489Z" fill="white" stroke="black"/>
</svg>
