<svg width="83" height="96" viewBox="0 0 83 96" fill="none" xmlns="http://www.w3.org/2000/svg">
<path d="M41.5 37.752L50 42.752V52.752L41.5 57.752L32.5 52.752V42.752L41.5 37.752Z" fill="white"/>
<path d="M57.5 30.252L80 23.752L45 2.25195L57.5 30.252Z" fill="white"/>
<path d="M82 27.752V68.252L68.5 58.752L82 27.752Z" fill="white"/>
<path d="M40 1.25195L28 28.752L1.5 24.752L40 1.25195Z" fill="white"/>
<path d="M0.5 67.752L14 36.752L0.5 27.252V67.752Z" fill="white"/>
<path d="M38 93.252L25 65.252L3 71.252L38 93.252Z" fill="white"/>
<path d="M42.5 94.252L54.5 66.752L81 70.752L42.5 94.252Z" fill="white"/>
<path d="M53 27.752L42 2.75195L24 45.252L41.5 34.752L62.5 47.752L55.5 64.252L63 65.252L80 26.252L52 33.752L43.5 27.752H53Z" fill="white"/>
<path d="M41.5 37.752L50 42.752V52.752L41.5 57.752L32.5 52.752V42.752L41.5 37.752Z" stroke="black"/>
<path d="M57.5 30.252L80 23.752L45 2.25195L57.5 30.252Z" stroke="black"/>
<path d="M82 27.752V68.252L68.5 58.752L82 27.752Z" stroke="black"/>
<path d="M40 1.25195L28 28.752L1.5 24.752L40 1.25195Z" stroke="black"/>
<path d="M0.5 67.752L14 36.752L0.5 27.252V67.752Z" stroke="black"/>
<path d="M38 93.252L25 65.252L3 71.252L38 93.252Z" stroke="black"/>
<path d="M42.5 94.252L54.5 66.752L81 70.752L42.5 94.252Z" stroke="black"/>
<path d="M53 27.752L42 2.75195L24 45.252L41.5 34.752L62.5 47.752L55.5 64.252L63 65.252L80 26.252L52 33.752L43.5 27.752H53Z" stroke="black"/>
<path d="M59.5 48.752L41 93.752L27 62.752L2 69.752L20 29.752L27.5 30.752L20.5 47.752L41 60.752L59.5 48.752Z" fill="white" stroke="black"/>
</svg>
