<svg width="30" height="20" viewBox="0 0 30 20" fill="none" xmlns="http://www.w3.org/2000/svg">
<path d="M26.7773 5L14.8763 11.25L2.97526 5V2.5L14.8763 8.75L26.7773 2.5V5ZM26.7773 0H2.97526C1.32399 0 0 1.1125 0 2.5V17.5C0 18.163 0.313464 18.7989 0.871433 19.2678C1.4294 19.7366 2.18617 20 2.97526 20H26.7773C27.5664 20 28.3232 19.7366 28.8812 19.2678C29.4391 18.7989 29.7526 18.163 29.7526 17.5V2.5C29.7526 1.83696 29.4391 1.20107 28.8812 0.732233C28.3232 0.263392 27.5664 0 26.7773 0Z" fill="white"/>
</svg>
