<svg 
  xmlns="http://www.w3.org/2000/svg" 
  viewBox="0 0 96.343 96.343"
>
  <path 
    fill="white"
    d="M94.171 20.444 82.449 10.222 70.728 0 59.005 10.222 47.283 20.444h12.828C55.792 46.975 31.278 67.613 3.382 63.225c-1.227-.191-1.724 1.46-.518 1.879 34.716 12.082 74.711-7.77 80.497-44.66H94.171z"
  />
  <path 
    fill="white"
    d="M68.171 54.722c-3.604 3.332-7.635 6.235-12 8.663v32.958h12V54.722z"
  />
  <path 
    fill="white"
    d="M38.171 96.343h12V66.324c-3.813 1.625-7.827 2.906-12 3.802V96.343z"
  />
  <path 
    fill="white"
    d="M74.171 96.343h12V23.444h-0.303c-1.883 9.304-5.971 17.725-11.697 24.837V96.343z"
  />
  <path 
    fill="white"
    d="M14.171 70.926c-4.075-0.596-8.088-1.552-12-2.895v28.312h12V70.926z"
  />
  <path 
    fill="white"
    d="M20.171 96.343h12V71.135c-2.729 0.331-5.51 0.505-8.335 0.505-1.226 0-2.447-0.046-3.665-0.112V96.343z"
  />
</svg>