<svg width="40" height="40" viewBox="0 0 40 40" fill="none" xmlns="http://www.w3.org/2000/svg">
<path d="M35 0H5C2.23875 0 0 2.23875 0 5V25C0 27.7612 2.23875 30 5 30H12.5L22.5 40V30H35C37.7612 30 40 27.7612 40 25V5C40 2.23875 37.7612 0 35 0ZM37.5 25C37.5 26.3794 36.3781 27.5 35 27.5H20V33.965L13.5353 27.5H5C3.62188 27.5 2.5 26.3794 2.5 25V5C2.5 3.62063 3.62188 2.5 5 2.5H35C36.3781 2.5 37.5 3.62063 37.5 5V25ZM7.5 10H32.5V7.5H7.5V10ZM7.5 15H32.5V12.5H7.5V15ZM7.5 20H22.5V17.5H7.5V20Z" fill="black"/>
</svg>
