<svg width="2871" height="536" viewBox="0 0 2871 536" fill="none" xmlns="http://www.w3.org/2000/svg">
<path d="M1751.91 391.134V394.442C1751.91 442.732 1786.43 479.574 1834.72 479.574C1883.01 479.57 1917.04 442.73 1917.04 394.442V391.134H1978.12V394.442C1978.12 475.586 1917.04 535.998 1834.72 536C1752.4 536 1690.82 475.589 1690.82 394.442V391.134H1751.91ZM145.72 108.519C233.181 108.519 282.644 175.735 282.644 250.078C282.644 324.419 233.181 392.286 145.72 392.286C111.203 392.283 80.0009 380.181 61.0813 360.104V502.311H0V116.161H61.0813V140.888C78.9738 122.065 107.369 110.238 139.291 108.833L145.72 108.519ZM459.063 108.854C493.581 108.856 524.782 120.978 543.7 141.056V116.329H604.762V385.165H543.7V360.439C524.617 380.515 493.579 392.618 459.063 392.62C371.439 392.62 321.974 325.421 321.97 251.082C321.97 176.74 371.6 108.854 459.063 108.854ZM1008.06 108.854C1042.58 108.855 1073.78 120.977 1092.7 141.056V116.329H1153.78V385.165H1092.7V360.439C1073.62 380.515 1042.58 392.62 1008.06 392.62C920.438 392.62 870.973 325.421 870.968 251.082C870.968 176.74 920.601 108.854 1008.06 108.854ZM1485.53 385.146H1424.45V360.439C1405.36 380.513 1374.33 392.62 1339.81 392.62C1252.19 392.618 1202.74 325.421 1202.74 251.082C1202.74 176.741 1252.35 108.856 1339.81 108.854C1374.33 108.854 1405.36 120.978 1424.45 141.056V0H1485.53V385.146ZM2725.28 108.854C2759.8 108.854 2791 120.977 2809.91 141.056V116.329H2871V385.165H2809.91V360.439C2790.83 380.515 2759.78 392.62 2725.28 392.62C2637.64 392.62 2588.18 325.421 2588.18 251.082C2588.18 176.74 2637.81 108.855 2725.28 108.854ZM2418.57 108.854C2489.43 108.854 2535.41 154.823 2535.41 224.513V385.165H2474.34V232.658C2474.34 191.172 2453.75 165.281 2409.95 165.281C2371.44 165.281 2336.91 196.476 2336.91 247.083V385.165H2275.85V232.658C2275.85 191.173 2255.26 165.282 2211.46 165.281C2172.77 165.281 2138.92 196.979 2138.92 245.932V385.165H2077.85V116.329H2138.92V141.056C2154.35 123.3 2183.73 108.854 2220.59 108.854C2266.05 108.855 2298.4 123.798 2318.5 154.33C2339.08 128.444 2372.42 108.855 2418.57 108.854ZM1623.61 385.146H1562.55V116.329H1623.61V385.146ZM843.936 172.085H819.207C766.263 172.085 736.892 204.778 736.892 254.894V384.998H675.811V116.161H736.892V149.012C750.173 128.938 779.549 114.005 819.207 114.005H843.936V172.085ZM141.574 165.281C99.5855 165.281 58.7569 192.83 58.7569 250.413C58.7589 307.992 99.5864 336.194 141.574 336.194C189.369 336.194 221.562 296.378 221.564 250.413C221.564 204.446 189.371 165.281 141.574 165.281ZM463.208 165.281C415.411 165.281 383.22 205.116 383.22 251.082C383.224 297.045 415.415 336.194 463.208 336.194C505.194 336.192 546.023 308.657 546.025 251.082C546.025 193.502 505.196 165.282 463.208 165.281ZM1012.21 165.281C964.412 165.281 932.218 205.116 932.218 251.082C932.223 297.045 964.414 336.192 1012.21 336.194C1054.2 336.194 1095.02 308.659 1095.03 251.082C1095.03 193.5 1054.2 165.281 1012.21 165.281ZM1343.79 165.281C1296 165.285 1263.8 205.119 1263.8 251.082C1263.8 297.043 1296 336.188 1343.79 336.194C1385.78 336.194 1426.6 308.659 1426.61 251.082C1426.61 193.5 1385.78 165.281 1343.79 165.281ZM2729.24 165.281C2681.45 165.284 2649.26 205.118 2649.26 251.082C2649.26 297.043 2681.45 336.19 2729.24 336.194C2771.23 336.194 2812.05 308.659 2812.08 251.082C2812.08 193.5 2771.23 165.281 2729.24 165.281ZM2029.71 172.755H1978.12V173.739C1978.12 254.883 1917.04 315.295 1834.72 315.299C1752.4 315.299 1690.82 254.885 1690.82 173.739V170.431H1751.91V173.739C1751.91 222.028 1786.43 258.871 1834.72 258.871C1883.01 258.869 1917.04 222.026 1917.04 173.739V170.431H1917.37V116.329H2029.71V172.755Z" fill="white"/>
</svg>
