<svg width="28" height="23" viewBox="0 0 28 23" fill="none" xmlns="http://www.w3.org/2000/svg">
<path d="M5.50489 9.95389C7.69468 13.57 11.2227 16.5344 15.5262 18.3744L18.8717 15.5633C19.2975 15.2056 19.8906 15.1033 20.4228 15.2439C22.126 15.7167 23.9508 15.9722 25.8517 15.9722C26.255 15.9722 26.6418 16.1068 26.927 16.3465C27.2122 16.5861 27.3724 16.9111 27.3724 17.25V21.7222C27.3724 22.0611 27.2122 22.3861 26.927 22.6257C26.6418 22.8654 26.255 23 25.8517 23C18.9954 23 12.4199 20.7114 7.57179 16.6377C2.72365 12.564 0 7.03887 0 1.27778C0 0.93889 0.160215 0.613882 0.445399 0.374252C0.730584 0.134623 1.11738 0 1.52069 0H6.8431C7.24641 0 7.6332 0.134623 7.91839 0.374252C8.20357 0.613882 8.36379 0.93889 8.36379 1.27778C8.36379 2.875 8.66792 4.40833 9.23058 5.83944C9.39786 6.28667 9.2762 6.785 8.85041 7.14278L5.50489 9.95389Z" fill="white"/>
</svg>
