<svg width="30" height="40" viewBox="0 0 30 40" fill="none" xmlns="http://www.w3.org/2000/svg">
<path d="M12.0282 1.45549C13.9672 1.45549 15.7878 1.79029 17.4416 2.45131C18.4144 2.83832 19.3476 3.35206 20.2157 3.9784C20.332 4.06213 20.4637 4.10222 20.594 4.10222C20.8122 4.10222 21.0266 3.98961 21.1578 3.78074C21.367 3.44753 21.2846 2.99524 20.9736 2.77068C20.0165 2.08012 18.9869 1.51351 17.9146 1.08733C16.1099 0.365784 14.1296 0 12.0283 0C11.6535 0 11.3496 0.325698 11.3496 0.727745C11.3496 1.12979 11.6534 1.45549 12.0282 1.45549Z" fill="white"/>
<path d="M0.667073 35.8434C0.674452 35.8439 0.681707 35.8439 0.688963 35.8439C1.05385 35.8439 1.35528 35.5331 1.36696 35.139C1.38578 34.5008 1.43386 33.876 1.50987 33.2824C1.56078 32.884 1.30117 32.5169 0.929884 32.4623C0.558725 32.4059 0.215975 32.6861 0.165061 33.0843C0.0826627 33.7284 0.0303942 34.4042 0.0101022 35.0931C-0.00158108 35.4949 0.292347 35.8307 0.667073 35.8434Z" fill="white"/>
<path d="M1.78606 30.1801C2.04752 30.1801 2.29656 30.0171 2.40835 29.7438C2.70978 29.0051 3.08008 28.3179 3.50867 27.702C3.73299 27.3799 3.67113 26.924 3.37068 26.6836C3.07024 26.4431 2.64496 26.5096 2.42077 26.8317C1.93007 27.5367 1.50738 28.32 1.16451 29.1604C1.01423 29.5287 1.1709 29.9575 1.51427 30.1188C1.60282 30.1604 1.69505 30.1801 1.78606 30.1801Z" fill="white"/>
<path d="M8.56667 38.5444H1.3576V38.0264C1.3576 37.6247 1.05359 37.2988 0.67886 37.2988C0.303889 37.2988 0 37.6247 0 38.0264V39.2721C0 39.6742 0.303889 39.9998 0.67886 39.9998H8.56667C8.94152 39.9998 9.24541 39.6742 9.24541 39.2721C9.24541 38.8701 8.9414 38.5444 8.56667 38.5444Z" fill="white"/>
<path d="M22.6234 6.19944C22.8771 6.4952 23.1218 6.80468 23.3512 7.11904C23.4851 7.30272 23.6845 7.39859 23.8863 7.39859C24.0325 7.39859 24.18 7.34808 24.3039 7.24418C24.5992 6.99654 24.6515 6.53911 24.4205 6.22264C24.1691 5.87769 23.9004 5.53855 23.6224 5.21403C23.4723 5.03945 23.3201 4.86961 23.1656 4.70478C22.8998 4.42075 22.4704 4.42141 22.2059 4.70623C21.9412 4.99092 21.9419 5.45165 22.2072 5.73528C22.3479 5.88574 22.4869 6.04041 22.6234 6.19944Z" fill="white"/>
<path d="M26.606 18.3184C26.6055 18.6844 26.5979 19.0599 26.5829 19.4347C26.5668 19.8362 26.8571 20.1756 27.2318 20.1929C27.2417 20.1934 27.2515 20.1936 27.2613 20.1936C27.6227 20.1936 27.9233 19.888 27.9389 19.4973C27.9549 19.1022 27.963 18.7064 27.9635 18.2979C27.9636 15.1146 27.427 12.2185 26.3684 9.6898C26.2147 9.32336 25.8129 9.15893 25.4713 9.32389C25.1293 9.48845 24.9766 9.91911 25.1299 10.2858C26.1095 12.6257 26.6063 15.3214 26.606 18.3184Z" fill="white"/>
<path d="M26.3372 22.2644C26.2554 22.8832 26.1538 23.5119 26.0354 24.1328C25.9603 24.5266 26.1971 24.9111 26.5643 24.9918C26.6103 25.0015 26.6559 25.0067 26.7011 25.0067C27.0166 25.0067 27.2995 24.7689 27.3654 24.4246C27.4894 23.7746 27.5955 23.1166 27.6812 22.4686C27.7339 22.0707 27.4756 21.7024 27.1044 21.6458C26.735 21.5901 26.3899 21.8665 26.3372 22.2644Z" fill="white"/>
<path d="M29.878 27.4052C29.7106 27.1477 29.5312 26.8929 29.3452 26.6486C29.1085 26.3375 28.6809 26.2903 28.3903 26.5448C28.1 26.7988 28.0564 27.2569 28.2935 27.5686C28.4579 27.7847 28.6162 28.0101 28.7645 28.2377C28.8963 28.4406 29.1074 28.5493 29.3219 28.5493C29.4558 28.5493 29.5912 28.5068 29.7094 28.4184C30.0171 28.1886 30.0925 27.735 29.878 27.4052Z" fill="white"/>
<path d="M13.9966 38.543H12.1867C11.8117 38.543 11.5078 38.8688 11.5078 39.2708C11.5078 39.6729 11.8117 39.9985 12.1867 39.9985H13.9966C14.3716 39.9985 14.6755 39.6729 14.6755 39.2708C14.6755 38.8688 14.3716 38.543 13.9966 38.543Z" fill="white"/>
<path d="M25.7599 38.543H16.7101C16.3351 38.543 16.0312 38.8688 16.0312 39.2708C16.0312 39.6729 16.3351 39.9985 16.7101 39.9985H25.7599C26.1348 39.9985 26.4386 39.6729 26.4386 39.2708C26.4386 38.8688 26.1348 38.543 25.7599 38.543Z" fill="white"/>
<path d="M23.7549 25.9741C24.6631 22.5766 26.4219 13.4715 21.297 7.51808C18.4443 4.20373 14.3498 2.84872 9.45651 3.60046C5.82313 4.1585 3.05739 5.66107 2.9413 5.72489C2.73788 5.83671 2.60039 6.05072 2.57579 6.29453C2.55144 6.53821 2.64306 6.77873 2.81954 6.93459L5.33969 9.15646C4.57609 10.4016 2.68021 13.4882 1.49183 15.3723C-0.306286 18.2227 1.01405 19.4824 2.17905 20.5936L2.33278 20.7404C3.0232 21.4027 3.74154 21.6856 4.4648 21.5794C5.29357 21.4592 6.06221 20.8457 6.80674 19.7076C7.92231 19.669 9.37829 19.4388 10.5911 18.6456C11.1929 18.2523 11.6847 17.7521 12.0618 17.1561C12.0032 18.5448 11.5775 20.0283 10.2275 20.848C9.98914 20.9928 9.85522 21.2771 9.88793 21.5686C9.99357 22.5063 9.75425 23.843 9.21239 25.3548C5.47485 27.3744 3.16967 29.8896 3.16967 35.8764C3.16967 36.2785 3.47356 36.6043 3.84853 36.6043H25.7622C26.1372 36.6043 26.441 36.2785 26.441 35.8764C26.441 35.4746 26.1372 35.1488 25.7622 35.1488H4.53969C4.7099 30.2791 6.63272 28.3336 10.0477 26.5348C10.1978 26.4557 10.3154 26.3202 10.378 26.1538C10.8194 24.98 11.3068 23.334 11.2679 21.8662C14.7429 19.3171 13.0114 13.656 12.9333 13.4085C12.8271 13.0706 12.509 12.8641 12.1801 12.9231C11.8522 12.9806 11.6114 13.2847 11.6114 13.6411C11.6114 17.4573 8.79978 18.2585 6.44112 18.2585C6.21016 18.2585 5.99494 18.3843 5.87011 18.5928C5.3055 19.5344 4.75639 20.0683 4.28241 20.1372C3.96512 20.1829 3.62372 20.0256 3.23805 19.6558L3.0815 19.506C1.91907 18.3972 1.48408 17.9821 2.61638 16.1873C4.13004 13.7878 6.78276 9.45183 6.80945 9.40845C6.99945 9.09778 6.94067 8.68334 6.67294 8.44718L4.53047 6.55826C7.27764 5.35726 15.2352 2.62139 20.2998 8.5052C24.952 13.9096 23.3041 22.3789 22.4529 25.5622H15.7189C15.344 25.5622 15.0401 25.888 15.0401 26.2901C15.0401 26.6921 15.344 27.0177 15.7189 27.0177H22.76C25.7116 29.0461 27.4976 30.7236 27.4976 35.8764C27.4976 36.2785 27.8015 36.6043 28.1764 36.6043C28.5514 36.6043 28.8552 36.2785 28.8552 35.8764C28.8549 30.1796 26.764 28.0761 23.7549 25.9741Z" fill="white"/>
<path d="M12.5188 25.5625C12.1437 25.5625 11.8398 25.8883 11.8398 26.2904C11.8398 26.6924 12.1437 27.018 12.5188 27.018H13.0026C13.3776 27.018 13.6815 26.6924 13.6815 26.2904C13.6815 25.8883 13.3776 25.5625 13.0026 25.5625H12.5188Z" fill="white"/>
<path d="M9.104 10.7177C9.45573 10.5788 9.63589 10.1603 9.50639 9.78331C9.37702 9.40631 8.98692 9.21261 8.63495 9.35172C7.0609 9.97319 6.92673 11.4955 7.07554 12.2138C7.14588 12.5528 7.42653 12.7837 7.73755 12.7837C7.78637 12.7837 7.83593 12.778 7.88549 12.7662C8.25149 12.6791 8.4822 12.2901 8.40066 11.8977C8.38308 11.8125 8.25235 11.0538 9.104 10.7177Z" fill="white"/>
</svg>
