<svg width="24" height="24" viewBox="0 0 24 24" fill="none" xmlns="http://www.w3.org/2000/svg">
<path d="M16.5 4H7.5C4.8 4 3 5.41176 3 8.70588V15.2941C3 18.5882 4.8 20 7.5 20H16.5C19.2 20 21 18.5882 21 15.2941V8.70588C21 5.41176 19.2 4 16.5 4ZM16.923 9.73176L14.106 12.0847C13.512 12.5835 12.756 12.8282 12 12.8282C11.244 12.8282 10.479 12.5835 9.894 12.0847L7.077 9.73176C6.9393 9.61223 6.85116 9.44163 6.83103 9.25567C6.8109 9.06971 6.86034 8.88282 6.969 8.73412C7.203 8.43294 7.626 8.37647 7.914 8.62118L10.731 10.9741C11.415 11.5482 12.576 11.5482 13.26 10.9741L16.077 8.62118C16.365 8.37647 16.797 8.42353 17.022 8.73412C17.256 9.03529 17.211 9.48706 16.923 9.73176Z" fill="white"/>
</svg>
