<svg width="30" height="31" viewBox="0 0 30 31" fill="none" xmlns="http://www.w3.org/2000/svg">
<path d="M29.9996 12.2301C29.9996 6.51048 25.9876 1.76512 20.7836 1.21455C20.5952 0.51391 19.9977 0 19.2904 0H10.7095C10.0023 0 9.40483 0.51391 9.21639 1.21455C4.01227 1.76584 0 6.51127 0 12.2301V21.069C0 22.946 1.41062 24.473 3.14442 24.473H5.59231C6.3208 24.473 6.91345 23.8314 6.91345 23.0428V13.6504C6.91345 12.8618 6.3208 12.2203 5.59231 12.2203H3.14442C2.36524 12.2203 1.65188 12.5293 1.10199 13.0392V12.2301C1.10199 7.13477 4.67134 2.90532 9.30469 2.40373C9.55455 2.97315 10.0895 3.36872 10.7095 3.36872H19.2904C19.9105 3.36872 20.4454 2.97315 20.6953 2.40373C25.3284 2.90468 28.8976 7.13414 28.8976 12.2302V13.0389C28.3477 12.5292 27.6345 12.2203 26.8555 12.2203H24.4076C23.6791 12.2203 23.0865 12.8618 23.0865 13.6504V23.0428C23.0865 23.8314 23.6791 24.4729 24.4076 24.4729H26.8555C27.6347 24.4729 28.348 24.1639 28.898 23.6538V24.088C28.898 26.3417 27.2042 28.1753 25.1222 28.1753H18.4453C18.2037 27.2355 17.4065 26.5436 16.4623 26.5436H14.4525C13.3176 26.5436 12.3942 27.5432 12.3942 28.7718C12.3942 30.0004 13.3176 31 14.4525 31H16.4623C17.4065 31 18.2037 30.3081 18.4453 29.3682H25.1222C27.8118 29.3682 30 26.9996 30 24.088L29.9996 12.2301ZM5.81153 13.6504V23.0428C5.81153 23.1736 5.71323 23.28 5.59238 23.28H5.37323V13.4132H5.59238C5.71323 13.4132 5.81153 13.5196 5.81153 13.6504ZM3.14442 13.4132H4.27117V23.2801H3.14442C2.01819 23.2801 1.10199 22.2882 1.10199 21.069V15.6241C1.10199 14.405 2.01826 13.4132 3.14442 13.4132ZM19.2904 2.17573H10.7095C10.4592 2.17573 10.2556 1.95527 10.2556 1.68432C10.2556 1.41337 10.4592 1.19292 10.7095 1.19292H19.2904C19.5407 1.19292 19.7444 1.41337 19.7444 1.68432C19.7444 1.95527 19.5407 2.17573 19.2904 2.17573ZM24.1884 23.0428V13.6504C24.1884 13.5196 24.2867 13.4132 24.4075 13.4132H24.6267V23.2801H24.4075C24.2867 23.2801 24.1884 23.1736 24.1884 23.0428ZM16.4623 29.8072H14.4525C13.9252 29.8072 13.4962 29.3427 13.4962 28.7719C13.4962 28.201 13.9252 27.7366 14.4525 27.7366H16.4623C16.9898 27.7366 17.4188 28.201 17.4188 28.7719C17.4188 29.3427 16.9898 29.8072 16.4623 29.8072ZM26.8555 23.2801H25.7288V13.4132H26.8555C27.9817 13.4132 28.898 14.4051 28.898 15.6241V21.069C28.898 22.2882 27.9817 23.2801 26.8555 23.2801Z" fill="white"/>
</svg>
