<svg width="24" height="24" viewBox="0 0 24 24" fill="none" xmlns="http://www.w3.org/2000/svg">
<g clip-path="url(#clip0_116_2851)">
<path d="M23.6295 2.38422C23.3362 2.0257 22.8971 1.82812 22.393 1.82812C22.1187 1.82812 21.8285 1.88599 21.53 1.99988L1.21439 9.75494C0.136268 10.1664 -0.00893445 10.7838 0.000403877 11.1154C0.00974221 11.4468 0.189734 12.0551 1.28946 12.4048C1.29605 12.407 1.30265 12.4089 1.30924 12.4109L4.15835 13.2261L18.034 6.13715C18.3797 5.96027 18.8034 6.0976 18.9801 6.44348C19.1189 6.71521 19.0633 7.03455 18.8655 7.24475L18.8661 7.2453L11.1511 15.4427L10.931 16.3347L13.686 18.5532L17.5038 21.6273C17.5071 21.6299 17.5103 21.6326 17.5138 21.6352C17.9339 21.9611 18.3927 22.1332 18.8408 22.1334C19.7164 22.1334 20.4135 21.4854 20.6165 20.4827L23.9452 4.04645C24.0787 3.3869 23.9666 2.79639 23.6295 2.38422Z" fill="white"/>
<path d="M9.83018 14.9269C9.8582 14.8132 9.9146 14.7048 10.0005 14.6135L15.0628 9.23438L5.66895 14.0336L7.80193 20.1337C7.92351 20.4813 8.10442 20.7772 8.32818 21.0088L9.82982 14.9268L9.83018 14.9269Z" fill="white"/>
<path d="M9.6377 21.5742C10.1447 21.57 10.6429 21.3561 11.0795 20.9542L12.6401 19.5172L10.5593 17.8418L9.6377 21.5742Z" fill="white"/>
</g>
<defs>
<clipPath id="clip0_116_2851">
<rect width="24" height="24" fill="white"/>
</clipPath>
</defs>
</svg>
