<svg width="30" height="23" viewBox="0 0 30 23" fill="none" xmlns="http://www.w3.org/2000/svg">
<path d="M18.705 0.303621L17.6884 0.0249054C17.5575 -0.0187336 17.4286 -0.00501007 17.3033 0.0659607C17.1775 0.136989 17.0926 0.243617 17.049 0.385673L10.9341 21.5499C10.8905 21.692 10.9041 21.826 10.9752 21.9515C11.0462 22.0773 11.1526 22.162 11.2949 22.2056L12.3113 22.4844C12.4424 22.5284 12.5708 22.5146 12.6965 22.4436C12.8223 22.3722 12.907 22.2659 12.9506 22.1241L19.0656 0.959525C19.1092 0.817469 19.0957 0.683452 19.0245 0.557645C18.9534 0.431896 18.8472 0.347202 18.705 0.303621Z" fill="white"/>
<path d="M9.54126 4.43507C9.54126 4.29301 9.48654 4.1672 9.37726 4.05799L8.55748 3.23827C8.44821 3.129 8.32246 3.07422 8.18041 3.07422C8.03835 3.07422 7.91255 3.12905 7.80333 3.23827L0.163991 10.8776C0.0545487 10.9869 0 11.1126 0 11.2547C0 11.3967 0.0547209 11.5225 0.163991 11.6317L7.80328 19.271C7.91249 19.3805 8.03807 19.4349 8.18035 19.4349C8.32264 19.4349 8.44821 19.3803 8.55743 19.271L9.37721 18.4518C9.48648 18.3426 9.5412 18.2168 9.5412 18.0745C9.5412 17.9327 9.48648 17.8069 9.37721 17.6977L2.93455 11.2547L9.37726 4.81214C9.48671 4.70293 9.54126 4.57712 9.54126 4.43507Z" fill="white"/>
<path d="M29.8357 10.8776L22.1962 3.23827C22.087 3.12905 21.9612 3.07422 21.8194 3.07422C21.6771 3.07422 21.5517 3.12905 21.4421 3.23827L20.6227 4.05793C20.5135 4.1672 20.459 4.29278 20.459 4.43501C20.459 4.57724 20.5134 4.70287 20.6227 4.81208L27.0655 11.2548L20.6227 17.6979C20.5135 17.8071 20.459 17.9329 20.459 18.0747C20.459 18.217 20.5134 18.3427 20.6227 18.452L21.4421 19.2712C21.5517 19.3807 21.6771 19.4351 21.8194 19.4351C21.9613 19.4351 22.087 19.3805 22.1962 19.2712L29.8357 11.6319C29.945 11.5227 29.9996 11.3967 29.9996 11.2547C29.9996 11.1126 29.945 10.9868 29.8357 10.8776Z" fill="white"/>
</svg>
