<svg width="1589" height="1814" viewBox="0 0 1589 1814" fill="none" xmlns="http://www.w3.org/2000/svg">
<path d="M799.002 712.113L964.545 809.491V1004.25L799.002 1101.63L623.721 1004.25V809.491L799.002 712.113Z" fill="white"/>
<path d="M1110.61 566.046L1548.81 439.454L867.167 20.7276L1110.61 566.046Z" fill="white"/>
<path d="M1587.77 517.357V1306.12L1324.84 1121.1L1587.77 517.357Z" fill="white"/>
<path d="M769.788 1.25195L536.08 536.832L19.9757 458.93L769.788 1.25195Z" fill="white"/>
<path d="M0.5 1296.38L263.421 692.638L0.5 507.619V1296.38Z" fill="white"/>
<path d="M730.837 1793.01L477.654 1247.69L49.1891 1364.55L730.837 1793.01Z" fill="white"/>
<path d="M818.477 1812.49L1052.19 1276.91L1568.29 1354.81L818.477 1812.49Z" fill="white"/>
<path d="M1022.97 517.357L808.74 30.4654L458.178 858.181L799.002 653.686L1207.99 906.87L1071.66 1228.22L1217.73 1247.69L1548.81 488.143L1003.5 634.211L837.953 517.357H1022.97Z" fill="white"/>
<path d="M799.002 712.113L964.545 809.491V1004.25L799.002 1101.63L623.721 1004.25V809.491L799.002 712.113Z" stroke="black"/>
<path d="M1110.61 566.046L1548.81 439.454L867.167 20.7276L1110.61 566.046Z" stroke="black"/>
<path d="M1587.77 517.357V1306.12L1324.84 1121.1L1587.77 517.357Z" stroke="black"/>
<path d="M769.788 1.25195L536.08 536.832L19.9757 458.93L769.788 1.25195Z" stroke="black"/>
<path d="M0.5 1296.38L263.421 692.638L0.5 507.619V1296.38Z" stroke="black"/>
<path d="M730.837 1793.01L477.654 1247.69L49.1891 1364.55L730.837 1793.01Z" stroke="black"/>
<path d="M818.477 1812.49L1052.19 1276.91L1568.29 1354.81L818.477 1812.49Z" stroke="black"/>
<path d="M1022.97 517.357L808.74 30.4654L458.178 858.181L799.002 653.686L1207.99 906.87L1071.66 1228.22L1217.73 1247.69L1548.81 488.143L1003.5 634.211L837.953 517.357H1022.97Z" stroke="black"/>
<path d="M1149.56 926.345L789.265 1802.75L516.606 1199L29.7148 1335.33L380.277 556.308L526.344 575.783L390.014 906.869L789.265 1160.05L1149.56 926.345Z" fill="white" stroke="black"/>
</svg>
